<?xml version="1.0" encoding="UTF-8" standalone="no"?>
<!DOCTYPE svg PUBLIC "-//W3C//DTD SVG 1.1//EN" "http://www.w3.org/Graphics/SVG/1.1/DTD/svg11.dtd">
<svg version="1.1" xmlns="http://www.w3.org/2000/svg" xmlns:xlink="http://www.w3.org/1999/xlink" preserveAspectRatio="xMidYMid meet" viewBox="0 0 211 37" width="211" height="37"><defs><path d="M24.43 12.22L37.12 14.16L27.94 23.58L30.1 36.87L18.75 30.59L7.4 36.87L9.57 23.58L0.38 14.16L13.07 12.22L18.75 0.13L24.43 12.22Z" id="aBp3UZma8"></path><path d="M67.8 12.35L80.49 14.29L71.31 23.71L73.47 37L62.12 30.72L50.77 37L52.94 23.71L43.75 14.29L56.44 12.35L62.12 0.26L67.8 12.35Z" id="atSIXNEr"></path><path d="M110.9 12.09L123.59 14.03L114.4 23.45L116.57 36.74L105.22 30.46L93.87 36.74L96.03 23.45L86.85 14.03L99.54 12.09L105.22 0L110.9 12.09Z" id="a2dmphrv8"></path><path d="M154.95 12.35L167.65 14.29L158.46 23.71L160.63 37L149.28 30.72L137.92 37L140.09 23.71L130.91 14.29L143.6 12.35L149.28 0.26L154.95 12.35Z" id="b5qwfuOL7R"></path><path d="M198.31 12.35L211 14.29L201.81 23.71L203.98 37L192.63 30.72L181.28 37L183.44 23.71L174.26 14.29L186.95 12.35L192.63 0.26L198.31 12.35Z" id="d3hyEhzwGA"></path></defs><g><g><g><use xlink:href="#aBp3UZma8" opacity="1" fill="#d4d02c" fill-opacity="1"></use></g><g><use xlink:href="#atSIXNEr" opacity="1" fill="#d4d02c" fill-opacity="1"></use></g><g><use xlink:href="#a2dmphrv8" opacity="1" fill="#d4d02c" fill-opacity="1"></use></g><g><use xlink:href="#b5qwfuOL7R" opacity="1" fill="#d4d02c" fill-opacity="1"></use></g><g><use xlink:href="#d3hyEhzwGA" opacity="1" fill="#d4d02c" fill-opacity="1"></use></g></g></g></svg>