<?xml version="1.0" encoding="UTF-8" standalone="no"?>
<!DOCTYPE svg PUBLIC "-//W3C//DTD SVG 1.1//EN" "http://www.w3.org/Graphics/SVG/1.1/DTD/svg11.dtd">
<svg version="1.1" xmlns="http://www.w3.org/2000/svg" xmlns:xlink="http://www.w3.org/1999/xlink" preserveAspectRatio="xMidYMid meet" viewBox="0 0 320 320" width="320" height="320"><defs><path d="M81.49 253.15L85.54 229.26C76.24 229.26 71.07 229.26 70.04 229.26C61.84 229.26 55.2 222.15 55.2 213.38C55.2 202.31 55.2 113.79 55.2 102.73C55.2 93.96 61.84 86.85 70.04 86.85C88.03 86.85 231.97 86.85 249.96 86.85C258.15 86.85 264.8 93.96 264.8 102.73C264.8 113.79 264.8 202.31 264.8 213.38C264.8 222.15 258.15 229.26 249.96 229.26C241.79 229.26 200.96 229.26 127.45 229.26L81.49 253.15Z" id="b9CF8Mv14"></path></defs><g><g><g><g><use xlink:href="#b9CF8Mv14" opacity="1" fill-opacity="0" stroke="#ffffff" stroke-width="12" stroke-opacity="1"></use></g></g></g></g></svg>