<?xml version="1.0" encoding="UTF-8" standalone="no"?>
<!DOCTYPE svg PUBLIC "-//W3C//DTD SVG 1.1//EN" "http://www.w3.org/Graphics/SVG/1.1/DTD/svg11.dtd">
<svg version="1.1" xmlns="http://www.w3.org/2000/svg" xmlns:xlink="http://www.w3.org/1999/xlink" preserveAspectRatio="xMidYMid meet" viewBox="0 0 100 100" width="100" height="100"><defs><path d="M89.43 51.47C89.43 73.63 71.44 91.61 49.29 91.61C27.13 91.61 9.14 73.63 9.14 51.47C9.14 29.32 27.13 11.33 49.29 11.33C71.44 11.33 89.43 29.32 89.43 51.47Z" id="a7gJ1uxVC1"></path><path d="M77.87 43.23L20.7 43.23" id="k1beUsFx9j"></path><path d="M74.54 43.23L74.54 76.56" id="btUQuyElx"></path><path d="M74.54 54.06L23.91 54.06" id="bt7peQ7CN"></path><path d="M74.54 69.65L23.79 69.65" id="kx9Pk8Jvu"></path><path d="M49.2 54.06L49.29 43.23" id="b6yazSC66"></path><path d="M27.62 50.48L45.54 50.48L45.54 46.81L27.62 46.81L27.62 50.48Z" id="b12ECB97Qq"></path><path d="M52.93 50.48L70.85 50.48L70.85 46.81L52.93 46.81L52.93 50.48Z" id="b9KTmR19v"></path><path d="M35.62 48.07L37.2 48.07L37.2 49.65L35.62 49.65L35.62 48.07Z" id="f2K9rkVJs9"></path><path d="M61.1 48.07L62.68 48.07L62.68 49.65L61.1 49.65L61.1 48.07Z" id="aa95sVtum"></path><path d="M24.04 76.56L24.04 43.23" id="e2sMMXkeK3"></path><path d="M64.2 21.24C64.2 21.24 64.2 21.24 64.2 21.24C64.06 21.8 63.86 22.34 63.59 22.85C63.57 22.89 63.53 22.97 63.46 23.1C63.43 23.16 63.41 23.2 63.4 23.21C63.14 23.7 63.3 24.3 63.76 24.6C63.77 24.61 63.8 24.63 63.83 24.65C63.99 24.79 64.09 24.88 64.13 24.92C64.6 25.35 65.01 25.86 65.32 26.43C65.36 26.51 65.05 25.93 65.09 26.02C65.39 26.55 65.61 27.12 65.76 27.71C65.8 27.89 65.68 27.41 65.72 27.55C65.89 28.23 65.92 28.93 65.83 29.62C65.82 29.69 65.79 29.86 65.76 30.14L55.26 26.04C55.48 25.67 55.62 25.43 55.68 25.34C55.91 24.93 56.22 24.58 56.58 24.28C56.65 24.22 56.84 24.07 57.13 23.82C57.49 23.65 57.71 23.55 57.8 23.5C58.35 23.24 58.94 23.07 59.54 22.99C59.72 22.97 59.56 22.99 59.79 22.96C60.2 22.91 60.62 22.92 61.03 23C61.11 23.01 61.3 23.05 61.6 23.1L62.9 20.6L63.6 20.51L64.2 21.24Z" id="eadtZC0d8"></path><path d="M71.54 39.78L75.94 41.1L67.19 41.1L71.32 39.88L71.41 26.88L63.41 22.66" id="ema96X9c"></path><path d="M70.33 40.01L73.01 40.01L73.01 40.95L70.33 40.95L70.33 40.01Z" id="a1PeTEvSms"></path></defs><g><g><g><use xlink:href="#a7gJ1uxVC1" opacity="1" fill="#5d5dbb" fill-opacity="1"></use><g><use xlink:href="#a7gJ1uxVC1" opacity="1" fill-opacity="0" stroke="#4a4a99" stroke-width="1" stroke-opacity="1"></use></g></g><g><g><use xlink:href="#k1beUsFx9j" opacity="1" fill-opacity="0" stroke="#ffffff" stroke-width="2" stroke-opacity="1"></use></g></g><g><g><use xlink:href="#btUQuyElx" opacity="1" fill-opacity="0" stroke="#ffffff" stroke-width="2" stroke-opacity="1"></use></g></g><g><g><use xlink:href="#bt7peQ7CN" opacity="1" fill-opacity="0" stroke="#ffffff" stroke-width="2" stroke-opacity="1"></use></g></g><g><g><use xlink:href="#kx9Pk8Jvu" opacity="1" fill-opacity="0" stroke="#ffffff" stroke-width="2" stroke-opacity="1"></use></g></g><g><g><use xlink:href="#b6yazSC66" opacity="1" fill-opacity="0" stroke="#ffffff" stroke-width="2" stroke-opacity="1"></use></g></g><g><use xlink:href="#b12ECB97Qq" opacity="1" fill="#ffffff" fill-opacity="1"></use><g><use xlink:href="#b12ECB97Qq" opacity="1" fill-opacity="0" stroke="#ffffff" stroke-width="2" stroke-opacity="1"></use></g></g><g><use xlink:href="#b9KTmR19v" opacity="1" fill="#ffffff" fill-opacity="1"></use><g><use xlink:href="#b9KTmR19v" opacity="1" fill-opacity="0" stroke="#ffffff" stroke-width="2" stroke-opacity="1"></use></g></g><g><use xlink:href="#f2K9rkVJs9" opacity="1" fill="#5d5dbb" fill-opacity="1"></use></g><g><use xlink:href="#aa95sVtum" opacity="1" fill="#5d5dbb" fill-opacity="1"></use></g><g><g><use xlink:href="#e2sMMXkeK3" opacity="1" fill-opacity="0" stroke="#ffffff" stroke-width="2" stroke-opacity="1"></use></g></g><g><g><g><use xlink:href="#eadtZC0d8" opacity="1" fill="#ffffff" fill-opacity="1"></use><g><use xlink:href="#eadtZC0d8" opacity="1" fill-opacity="0" stroke="#ffffff" stroke-width="1" stroke-opacity="1"></use></g></g><g><g><use xlink:href="#ema96X9c" opacity="1" fill-opacity="0" stroke="#ffffff" stroke-width="1" stroke-opacity="1"></use></g></g></g><g><use xlink:href="#a1PeTEvSms" opacity="1" fill="#ffffff" fill-opacity="1"></use></g></g></g></g></svg>