<?xml version="1.0" encoding="UTF-8" standalone="no"?>
<!DOCTYPE svg PUBLIC "-//W3C//DTD SVG 1.1//EN" "http://www.w3.org/Graphics/SVG/1.1/DTD/svg11.dtd">
<svg version="1.1" xmlns="http://www.w3.org/2000/svg" xmlns:xlink="http://www.w3.org/1999/xlink" preserveAspectRatio="xMidYMid meet" viewBox="0 0 100 100" width="100" height="100"><defs><path d="M90.14 50.72C90.14 72.87 72.16 90.86 50 90.86C27.84 90.86 9.86 72.87 9.86 50.72C9.86 28.56 27.84 10.57 50 10.57C72.16 10.57 90.14 28.56 90.14 50.72Z" id="a1LhxVIIG"></path><path d="M50.76 21.57C48.18 22.72 46.14 24.82 45.06 27.43C44.77 28.12 45.02 27.53 44.59 28.57C43.95 30.11 43.62 31.75 43.62 33.42C43.62 34.85 43.62 38.42 43.62 44.15L33.75 44.15L33.75 55.31L43.62 55.31L43.62 85.18L55.83 85.18L55.83 55.31L65.7 55.31L67.52 43.63L55.47 43.63C55.47 40.28 55.47 38.2 55.47 37.36C55.47 34.87 56.73 32.54 58.81 31.18C59.03 31.03 58.15 31.61 58.81 31.18C59.53 30.71 60.37 30.47 61.22 30.49C62.06 30.51 64.16 30.56 67.52 30.64L67.52 20.38C62.1 20.22 58.71 20.12 57.36 20.08C55.33 20.02 53.31 20.42 51.46 21.25C50.51 21.68 51.46 21.25 50.76 21.57Z" id="i45vbv6I8D"></path></defs><g><g><g><use xlink:href="#a1LhxVIIG" opacity="1" fill="#ff0000" fill-opacity="1"></use><g><use xlink:href="#a1LhxVIIG" opacity="1" fill-opacity="0" stroke="#c30000" stroke-width="1" stroke-opacity="1"></use></g></g><g><use xlink:href="#i45vbv6I8D" opacity="1" fill="#ffffff" fill-opacity="1"></use><g><use xlink:href="#i45vbv6I8D" opacity="1" fill-opacity="0" stroke="#ffffff" stroke-width="1" stroke-opacity="1"></use></g></g></g></g></svg>