<?xml version="1.0" encoding="UTF-8" standalone="no"?>
<!DOCTYPE svg PUBLIC "-//W3C//DTD SVG 1.1//EN" "http://www.w3.org/Graphics/SVG/1.1/DTD/svg11.dtd">
<svg version="1.1" xmlns="http://www.w3.org/2000/svg" xmlns:xlink="http://www.w3.org/1999/xlink" preserveAspectRatio="xMidYMid meet" viewBox="0 0 640 400" width="640" height="400"><defs><path d="M18.67 245.94C78.8 271.32 116.38 287.19 131.41 293.54C164.85 307.66 200.05 317.19 236.04 321.89C247.43 323.37 245.6 323.13 261.55 325.21C282.4 327.93 303.53 327.79 324.34 324.78C338.12 322.79 318.06 325.69 324.34 324.78C369.38 318.27 411.68 299.2 446.39 269.76C457.35 260.46 484.76 237.21 528.61 200.02L594.2 245.94L607.15 77.97L425.9 119.06L489.94 169.81C461.3 194.15 443.4 209.36 436.24 215.45C408 239.46 374.46 256.43 338.38 264.96C329.8 266.99 347.34 262.84 335.85 265.56C309.14 271.88 281.54 273.54 254.26 270.46C242.91 269.18 262.5 271.39 254.26 270.46C216.69 266.22 180.07 255.81 145.89 239.63C134.73 234.35 106.83 221.15 62.17 200.02L18.67 245.94Z" id="a1wyKql4Dj"></path></defs><g><g><g><use xlink:href="#a1wyKql4Dj" opacity="1" fill="#2cc00c" fill-opacity="1"></use></g></g></g></svg>