<?xml version="1.0" encoding="UTF-8" standalone="no"?>
<!DOCTYPE svg PUBLIC "-//W3C//DTD SVG 1.1//EN" "http://www.w3.org/Graphics/SVG/1.1/DTD/svg11.dtd">
<svg version="1.1" xmlns="http://www.w3.org/2000/svg" xmlns:xlink="http://www.w3.org/1999/xlink" preserveAspectRatio="xMidYMid meet" viewBox="0 0 100 100" width="100" height="100"><defs><path d="M90.47 51.67C90.47 73.83 72.48 91.82 50.33 91.82C28.17 91.82 10.19 73.83 10.19 51.67C10.19 29.52 28.17 11.53 50.33 11.53C72.48 11.53 90.47 29.52 90.47 51.67Z" id="blFdJVvKf"></path><path d="M45.23 22.38C45.75 22.38 46.08 22.38 46.22 22.38C47.11 22.38 47.97 22 48.57 21.34C48.71 21.2 48.56 21.36 48.79 21.1C49.08 20.79 49.47 20.57 49.89 20.47C50.24 20.4 50.26 20.39 50.51 20.34C51.27 20.17 52.05 20.09 52.82 20.09C53.01 20.09 53.48 20.09 54.22 20.09C54.94 20.17 55.39 20.23 55.57 20.25C56.96 20.41 58.31 20.82 59.55 21.46C59.95 21.67 59.2 21.28 59.58 21.48C60.89 22.15 62.12 22.99 63.23 23.96C63.67 24.35 62.9 23.67 63.23 23.96C64.69 25.24 65.9 26.78 66.8 28.5C66.86 28.63 67.03 28.95 67.3 29.46L68.59 32.33L67.23 32.33C65.9 30.89 65.07 30 64.73 29.64C63.64 28.47 62.3 27.56 60.8 26.99C60.76 26.98 60.68 26.95 60.54 26.89C59.77 26.67 59.3 26.53 59.11 26.48C58.18 26.21 57.19 26.29 56.32 26.7C55.89 26.91 56.32 26.7 55.99 26.86C54.84 27.41 54.05 28.5 53.89 29.76C53.84 30.17 53.71 31.18 53.51 32.81L50.34 32.81C50.34 32.41 50.34 32.16 50.34 32.06C50.34 30.49 49.93 28.94 49.16 27.57C49.1 27.45 48.93 27.15 48.65 26.66L43.37 26.66L42.23 28.38L37.08 28.46C36.86 27.21 36.73 26.42 36.67 26.11C36.47 24.92 36.51 23.7 36.79 22.52C36.87 22.19 37.06 21.38 37.37 20.09L42.23 20.09C42.46 20.39 42.6 20.58 42.66 20.66C43.19 21.35 43.9 21.87 44.71 22.18C44.78 22.21 44.95 22.27 45.23 22.38Z" id="bjRyNMLjs"></path><path d="M50.39 50.97C50.39 50.97 50.39 50.97 50.39 50.97C49.67 51.43 49.09 52.08 48.72 52.85C48.7 52.9 48.64 53.02 48.55 53.21C48.43 53.77 48.36 54.12 48.33 54.26C48.23 54.75 48.18 55.25 48.19 55.76C48.22 61.19 48.3 75.98 48.33 81.22C48.34 82.35 48.14 83.46 47.76 84.52C47.69 84.72 47.72 84.64 47.56 85.07C47.45 85.36 47.43 85.68 47.51 85.98C47.55 86.18 47.48 85.89 47.51 85.98C47.65 86.58 48.18 87 48.8 87C49.74 87 51.08 87 51.92 87C52.89 87 53.8 86.48 54.29 85.64C54.43 85.4 54.13 85.9 54.29 85.63C54.75 84.84 54.99 83.94 54.98 83.02C54.89 76.7 54.63 58.59 54.54 52.13C54.53 51.68 54.32 51.26 53.97 50.97C53.93 50.93 53.81 50.84 53.62 50.68L53.42 34.3L50.33 34.3L50.39 50.97Z" id="b5py27GVsA"></path></defs><g><g><g><use xlink:href="#blFdJVvKf" opacity="1" fill="#5d5dbb" fill-opacity="1"></use><g><use xlink:href="#blFdJVvKf" opacity="1" fill-opacity="0" stroke="#4a4a99" stroke-width="1" stroke-opacity="1"></use></g></g><g><use xlink:href="#bjRyNMLjs" opacity="1" fill="#ffffff" fill-opacity="1"></use><g><use xlink:href="#bjRyNMLjs" opacity="1" fill-opacity="0" stroke="#ffffff" stroke-width="1" stroke-opacity="1"></use></g></g><g><use xlink:href="#b5py27GVsA" opacity="1" fill="#ffffff" fill-opacity="1"></use><g><use xlink:href="#b5py27GVsA" opacity="1" fill-opacity="0" stroke="#ffffff" stroke-width="1" stroke-opacity="1"></use></g></g></g></g></svg>