<?xml version="1.0" encoding="UTF-8" standalone="no"?>
<!DOCTYPE svg PUBLIC "-//W3C//DTD SVG 1.1//EN" "http://www.w3.org/Graphics/SVG/1.1/DTD/svg11.dtd">
<svg version="1.1" xmlns="http://www.w3.org/2000/svg" xmlns:xlink="http://www.w3.org/1999/xlink" preserveAspectRatio="xMidYMid meet" viewBox="0 0 100 100" width="100" height="100"><defs><path d="M90.14 50.8C90.14 72.95 72.16 90.94 50 90.94C27.84 90.94 9.86 72.95 9.86 50.8C9.86 28.64 27.84 10.65 50 10.65C72.16 10.65 90.14 28.64 90.14 50.8Z" id="j5pBrrtE6r"></path><path d="M62.76 50.8C62.76 57.84 57.04 63.56 50 63.56C42.96 63.56 37.24 57.84 37.24 50.8C37.24 43.76 42.96 38.04 50 38.04C57.04 38.04 62.76 43.76 62.76 50.8Z" id="e1vljFi0m4"></path><path d="M68.72 34.48C68.72 36.44 67.13 38.04 65.16 38.04C63.19 38.04 61.6 36.44 61.6 34.48C61.6 32.51 63.19 30.91 65.16 30.91C67.13 30.91 68.72 32.51 68.72 34.48Z" id="igYzJaZVl"></path><path d="M25.49 32.91C25.02 34.26 24.79 35.68 24.79 37.11C24.79 42.22 24.79 56.15 24.79 61.45C24.79 61.45 24.91 63.82 24.91 63.82C25.07 65.42 25.08 65.44 25.15 66.14C25.51 69.65 27.73 72.68 30.95 74.1C31.43 74.31 30.22 73.78 31.35 74.27C32.65 74.84 34.07 75.14 35.5 75.14C41.8 75.14 58.62 75.14 64.94 75.14C66.3 75.14 67.66 74.88 68.93 74.38C70 73.95 69.39 74.19 69.99 73.96C72.65 72.91 74.55 70.53 75.01 67.72C75.12 67.02 74.86 68.62 75.01 67.72C75.39 65.39 75.58 63.04 75.58 60.69C75.58 55.41 75.58 42.72 75.58 37.34C75.58 35.34 75.24 33.35 74.58 31.46C74.28 30.61 74.63 31.6 74.39 30.92C73.58 28.6 71.64 26.86 69.25 26.29C68.27 26.06 68.77 26.18 67.68 25.93C65.47 25.4 63.2 25.14 60.92 25.14C55.78 25.14 43.53 25.14 38.33 25.14C36.27 25.14 34.22 25.41 32.23 25.94C31.28 26.19 32.3 25.92 31.56 26.11C29.01 26.79 26.96 28.7 26.09 31.19C25.83 31.94 25.89 31.77 25.49 32.91Z" id="a5b0SOXsIg"></path></defs><g><g><g><use xlink:href="#j5pBrrtE6r" opacity="1" fill="#5d5dbb" fill-opacity="1"></use><g><use xlink:href="#j5pBrrtE6r" opacity="1" fill-opacity="0" stroke="#4a4a99" stroke-width="1" stroke-opacity="1"></use></g></g><g><use xlink:href="#e1vljFi0m4" opacity="1" fill="#5d5dbb" fill-opacity="1"></use><g><use xlink:href="#e1vljFi0m4" opacity="1" fill-opacity="0" stroke="#ffffff" stroke-width="6" stroke-opacity="1"></use></g></g><g><use xlink:href="#igYzJaZVl" opacity="1" fill="#ffffff" fill-opacity="1"></use></g><g><g><use xlink:href="#a5b0SOXsIg" opacity="1" fill-opacity="0" stroke="#ffffff" stroke-width="5" stroke-opacity="1"></use></g></g></g></g></svg>