<?xml version="1.0" encoding="UTF-8" standalone="no"?>
<!DOCTYPE svg PUBLIC "-//W3C//DTD SVG 1.1//EN" "http://www.w3.org/Graphics/SVG/1.1/DTD/svg11.dtd">
<svg version="1.1" xmlns="http://www.w3.org/2000/svg" xmlns:xlink="http://www.w3.org/1999/xlink" preserveAspectRatio="xMidYMid meet" viewBox="0 0 100 100" width="100" height="100"><defs><path d="M89.63 50.65C89.63 72.8 71.64 90.79 49.49 90.79C27.33 90.79 9.35 72.8 9.35 50.65C9.35 28.49 27.33 10.51 49.49 10.51C71.64 10.51 89.63 28.49 89.63 50.65Z" id="d4TygcbFoE"></path><path d="M35.88 29.76C35.88 33.09 33.18 35.8 29.85 35.8C26.51 35.8 23.81 33.09 23.81 29.76C23.81 26.43 26.51 23.73 29.85 23.73C33.18 23.73 35.88 26.43 35.88 29.76Z" id="a1lrxc5PbI"></path><path d="M24.53 40.66L35.34 40.66L35.34 74.54L24.53 74.54L24.53 40.66Z" id="a1VARrLJBh"></path><path d="M42.12 74.12L53 74.12C53 64.28 53 58.12 53 55.66C53 54.65 53.14 53.64 53.41 52.67C53.55 52.17 53.42 52.65 53.52 52.28C53.89 50.94 54.78 49.82 55.99 49.15C56.54 48.85 56.24 49.01 56.78 48.72C58.01 48.04 59.48 47.9 60.82 48.35C61.21 48.48 60.24 48.16 60.63 48.28C62.01 48.75 63.18 49.7 63.91 50.97C64.15 51.39 63.76 50.72 64.01 51.15C64.72 52.39 65.11 53.78 65.14 55.21C65.19 57.73 65.32 64.04 65.53 74.12L76.19 74.12C75.93 63.25 75.78 56.46 75.71 53.74C75.66 51.76 75.15 49.82 74.2 48.08C73.87 47.49 73.87 47.48 73.43 46.67C72.87 45.64 72.15 44.71 71.3 43.92C70.81 43.45 71.19 43.82 70.85 43.49C69.53 42.25 67.89 41.41 66.11 41.06C65.39 40.92 66.02 41.04 65.32 40.9C63.47 40.54 61.56 40.5 59.69 40.78C59.19 40.86 60.26 40.7 59.69 40.78C58.06 41.03 56.53 41.78 55.33 42.92C55.02 43.21 54.24 43.95 53 45.12L53.33 40.4L42.12 40.66L42.12 74.12Z" id="jdFjwHY9k"></path></defs><g><g><g><use xlink:href="#d4TygcbFoE" opacity="1" fill="#ff0000" fill-opacity="1"></use><g><use xlink:href="#d4TygcbFoE" opacity="1" fill-opacity="0" stroke="#c30000" stroke-width="2" stroke-opacity="1"></use></g></g><g><use xlink:href="#a1lrxc5PbI" opacity="1" fill="#ffffff" fill-opacity="1"></use></g><g><use xlink:href="#a1VARrLJBh" opacity="1" fill="#ffffff" fill-opacity="1"></use></g><g><use xlink:href="#jdFjwHY9k" opacity="1" fill="#ffffff" fill-opacity="1"></use><g><use xlink:href="#jdFjwHY9k" opacity="1" fill-opacity="0" stroke="#ffffff" stroke-width="2" stroke-opacity="1"></use></g></g></g></g></svg>