<?xml version="1.0" encoding="UTF-8" standalone="no"?>
<!DOCTYPE svg PUBLIC "-//W3C//DTD SVG 1.1//EN" "http://www.w3.org/Graphics/SVG/1.1/DTD/svg11.dtd">
<svg version="1.1" xmlns="http://www.w3.org/2000/svg" xmlns:xlink="http://www.w3.org/1999/xlink" preserveAspectRatio="xMidYMid meet" viewBox="0 0 100 100" width="100" height="100"><defs><path d="M66.68 33.98C66.68 43.19 59.21 50.67 50 50.67C40.79 50.67 33.32 43.19 33.32 33.98C33.32 24.78 40.79 17.3 50 17.3C59.21 17.3 66.68 24.78 66.68 33.98Z" id="e1Mo8Qmq4"></path><path d="M30.54 61.98C34.05 59.39 38.3 57.99 42.67 57.99C47.13 57.99 53.97 57.99 58.48 57.99C62.7 57.99 66.78 59.44 70.06 62.09C70.97 62.83 69.51 61.65 70.64 62.56C73.16 64.6 74.62 67.66 74.62 70.89C74.62 71.64 74.62 73.49 74.62 76.45L25.38 76.45C25.38 73.72 25.38 72.02 25.38 71.33C25.38 67.84 27.04 64.56 29.85 62.48C31.07 61.58 29.51 62.74 30.54 61.98Z" id="a1GJPNq4Ql"></path></defs><g><g><g><g><use xlink:href="#e1Mo8Qmq4" opacity="1" fill="#ffffff" fill-opacity="1"></use><g><use xlink:href="#e1Mo8Qmq4" opacity="1" fill-opacity="0" stroke="#ffffff" stroke-width="3" stroke-opacity="1"></use></g></g><g><use xlink:href="#a1GJPNq4Ql" opacity="1" fill="#ffffff" fill-opacity="1"></use><g><use xlink:href="#a1GJPNq4Ql" opacity="1" fill-opacity="0" stroke="#ffffff" stroke-width="3" stroke-opacity="1"></use></g></g></g></g></g></svg>