<?xml version="1.0" encoding="UTF-8" standalone="no"?>
<!DOCTYPE svg PUBLIC "-//W3C//DTD SVG 1.1//EN" "http://www.w3.org/Graphics/SVG/1.1/DTD/svg11.dtd">
<svg version="1.1" xmlns="http://www.w3.org/2000/svg" xmlns:xlink="http://www.w3.org/1999/xlink" preserveAspectRatio="xMidYMid meet" viewBox="0 0 100 100" width="100" height="100"><defs><path d="M90.14 50.63C90.14 72.78 72.16 90.77 50 90.77C27.84 90.77 9.86 72.78 9.86 50.63C9.86 28.47 27.84 10.48 50 10.48C72.16 10.48 90.14 28.47 90.14 50.63Z" id="aujjXGYLh"></path><path d="M21.88 32.71L21.88 31.56L29.7 24.8L62.45 45.52L59.99 50.09C60.31 51.13 60.51 51.79 60.59 52.05C60.99 53.35 61.11 54.71 60.95 56.06C60.95 56.06 60.95 56.06 60.95 56.06C60.18 57.84 59.7 58.94 59.51 59.39C59.3 59.86 59.14 60.35 59.01 60.85C58.85 61.47 59.01 60.87 58.96 61.06C58.49 62.95 58.63 64.93 59.36 66.73C59.45 66.93 59.65 67.45 59.99 68.26L60.95 69.58" id="a7LwoWQOPC"></path><path d="M21.88 32.44L23.11 32.79L23.46 34.9L25.31 35.43L25.92 37.27L27.94 37.62L28.29 40.08L30.22 40.08L30.66 42.45L32.68 42.45L32.95 44.65L34.88 45.17L35.4 47.02L37.34 47.28L37.78 49.61L39.62 49.61L39.88 52.11L42.17 52.11L42.17 54.57L44.45 54.57L44.71 56.76L46.73 57.29L47.35 59.05L49.19 59.66L49.63 61.68L51.56 62.03L52 64.05L53.76 64.4L54.28 66.42L56.21 66.77L56.65 69.06L58.76 69.06L59.29 71.16L60.95 69.49" id="ba5FTJBawE"></path><path d="M61.63 50.45C61.86 51.1 61.99 51.5 62.05 51.66C62.49 52.95 62.64 54.31 62.49 55.65C62.47 55.87 62.54 55.24 62.49 55.65C62.41 56.38 62.21 57.09 61.9 57.76C61.54 58.52 61.18 59.28 60.88 59.91C60.37 61.01 60.14 62.21 60.21 63.41C60.24 63.85 60.19 63.05 60.21 63.42C60.3 64.86 60.73 66.25 61.47 67.49C61.6 67.7 61.04 66.76 61.21 67.05C61.8 68.03 62.56 68.9 63.45 69.62C64.76 70.68 67.19 72.65 68.47 73.68C69.49 74.5 70.58 75.23 71.73 75.87C71.96 75.99 72 76.01 72.5 76.29C72.73 76.42 73.02 76.45 73.28 76.36C73.46 76.3 72.99 76.46 73.02 76.45C73.68 76.22 74.07 75.54 73.93 74.86C73.92 74.82 73.9 74.72 73.87 74.56C73.66 73.49 73.53 72.82 73.48 72.55C73.35 71.89 73.47 71.21 73.8 70.63C74 70.27 74.51 69.39 75.33 67.97L76.79 64.75C77.02 63.52 77.16 62.75 77.22 62.44C77.32 61.87 77.54 61.32 77.85 60.83C77.9 60.76 77.52 61.35 77.56 61.3C77.89 60.76 78.42 60.37 79.03 60.21C79.32 60.13 78.94 60.24 79.15 60.18C80.03 59.94 80.85 59.54 81.57 58.99C81.74 58.86 81.09 59.36 81.24 59.24C81.89 58.75 82.03 57.83 81.57 57.16C81.3 56.78 81.17 56.59 80.87 56.15C80.46 55.56 79.95 55.04 79.37 54.61C79.02 54.36 78.57 54.03 78.15 53.72C77.8 53.46 77.39 53.27 76.96 53.15C76.3 52.98 75.33 52.72 74.75 52.57C74.01 52.37 73.28 52.1 72.59 51.75C72.38 51.64 72.4 51.65 72.09 51.5C71.72 51.31 71.42 51.03 71.21 50.67C71.13 50.53 70.92 50.18 70.59 49.61C70.45 49.4 70.37 49.28 70.34 49.23C69.74 48.32 68.86 47.63 67.83 47.28C67.31 47.1 66 46.66 63.92 45.95L61.63 50.45Z" id="bnwpFDbEb"></path><path d="M68.77 58.77C68.7 59.23 68.65 59.52 68.63 59.64C68.46 60.66 68.06 61.63 67.44 62.47C67.4 62.54 67.28 62.69 67.1 62.94C66.81 63.22 66.62 63.4 66.55 63.47C66.25 63.75 66.02 64.1 65.87 64.48C65.76 64.78 65.92 64.36 65.87 64.48C65.54 65.37 65.86 66.37 66.65 66.89C66.81 66.99 66.38 66.71 66.65 66.89C67.17 67.23 67.79 67.36 68.4 67.25C68.62 67.22 68.53 67.23 68.8 67.19C69.27 67.11 69.7 66.89 70.05 66.57C70.28 66.36 69.95 66.67 70.05 66.57C70.8 65.88 71.41 65.06 71.84 64.14C71.91 64 72.07 63.66 72.33 63.11C72.73 61.96 72.97 61.25 73.07 60.96C73.36 60.12 73.51 59.24 73.51 58.35C73.51 57.97 73.51 57.88 73.51 57.42C73.51 56.83 73.24 56.27 72.78 55.9C72.57 55.73 73.06 56.13 72.95 56.04C72.2 55.43 71.21 55.22 70.27 55.46C70.21 55.48 70.57 55.39 70.27 55.46C70.06 55.52 69.87 55.64 69.74 55.82C69.58 56.03 69.66 55.92 69.59 56.02C69.17 56.58 68.91 57.25 68.85 57.95C68.84 58.06 68.81 58.33 68.77 58.77Z" id="a1iNPUl7H"></path></defs><g><g><g><use xlink:href="#aujjXGYLh" opacity="1" fill="#5d5dbb" fill-opacity="1"></use><g><use xlink:href="#aujjXGYLh" opacity="1" fill-opacity="0" stroke="#4a4a99" stroke-width="1" stroke-opacity="1"></use></g></g><g><g><use xlink:href="#a7LwoWQOPC" opacity="1" fill="#ffffff" fill-opacity="1"></use><g><use xlink:href="#a7LwoWQOPC" opacity="1" fill-opacity="0" stroke="#ffffff" stroke-width="1" stroke-opacity="1"></use></g></g><g><use xlink:href="#ba5FTJBawE" opacity="1" fill="#ffffff" fill-opacity="1"></use><g><use xlink:href="#ba5FTJBawE" opacity="1" fill-opacity="0" stroke="#ffffff" stroke-width="1" stroke-opacity="1"></use></g></g></g><g><use xlink:href="#bnwpFDbEb" opacity="1" fill="#ffffff" fill-opacity="1"></use><g><use xlink:href="#bnwpFDbEb" opacity="1" fill-opacity="0" stroke="#ffffff" stroke-width="1" stroke-opacity="1"></use></g></g><g><use xlink:href="#a1iNPUl7H" opacity="1" fill="#5d5dbb" fill-opacity="1"></use><g><use xlink:href="#a1iNPUl7H" opacity="1" fill-opacity="0" stroke="#5d5dbb" stroke-width="1" stroke-opacity="1"></use></g></g></g></g></svg>