<?xml version="1.0" encoding="UTF-8" standalone="no"?>
<!DOCTYPE svg PUBLIC "-//W3C//DTD SVG 1.1//EN" "http://www.w3.org/Graphics/SVG/1.1/DTD/svg11.dtd">
<svg version="1.1" xmlns="http://www.w3.org/2000/svg" xmlns:xlink="http://www.w3.org/1999/xlink" preserveAspectRatio="xMidYMid meet" viewBox="0 0 300 228" width="300" height="228"><defs><path d="M224.62 35.62C230.95 34.68 236.06 29.95 237.47 23.71C237.86 21.98 237.19 24.93 237.71 22.64C238.81 17.76 241.65 13.45 245.7 10.51C247.85 8.95 244.67 11.26 245.98 10.3C252.75 5.39 260.99 2.93 269.34 3.32C271.98 3.44 273.83 3.53 278.18 3.73C280.85 3.85 283.21 5.47 284.28 7.92C284.51 8.43 285.08 9.73 285.99 11.81L258.56 28.43C260 32.07 260.9 34.35 261.26 35.26C263.8 41.67 268.7 46.87 274.95 49.78C275.07 49.83 270.39 47.65 271.69 48.26C274.07 49.36 276.86 49.1 278.99 47.57C281.18 45.99 286.66 42.06 295.41 35.76L300 41.47C298.91 46.95 298.22 50.37 297.95 51.73C296.77 57.65 293.73 63.04 289.29 67.12C287.34 68.91 288.35 67.98 286.41 69.76C282.08 73.73 276.16 75.48 270.38 74.49C267.11 73.94 271.56 74.69 269.57 74.35C259.45 72.63 250.1 67.85 242.79 60.64C242.79 60.64 242.79 60.64 242.79 60.64L101.38 93.84C96.39 95.01 93.27 95.75 92.02 96.04C82.75 98.23 74.05 102.36 66.51 108.18C66.45 108.22 66.3 108.34 66.07 108.52C65.85 109.1 65.71 109.46 65.65 109.6C62.79 117.04 57.1 123.04 49.83 126.29C48.51 126.88 51.61 125.5 49.21 126.57C45.31 128.32 40.96 128.86 36.74 128.11C33.91 127.62 26.83 126.37 15.49 124.38L15.7 116.96L32.49 111.38C33.49 110.78 34.12 110.41 34.37 110.26C38.84 107.6 41.45 102.66 41.1 97.47C41.03 96.49 41.21 99.17 41.1 97.47C40.89 94.28 39.61 91.25 37.48 88.86C37.19 88.53 36.45 87.71 35.28 86.39L28.14 80.2L1.69 91.51L0 82.43C2.28 77.7 3.7 74.74 4.27 73.55C6.62 68.67 10.48 64.68 15.29 62.17C17.61 60.96 13.58 63.06 15.01 62.32C22.65 58.34 31.54 57.45 39.82 59.84C40.88 60.15 35.12 58.48 37.17 59.08C42.36 60.58 46.99 63.58 50.48 67.71C51.46 68.87 48.67 65.57 49.56 66.62C53.28 71.03 58.7 73.63 64.46 73.8C65.68 73.83 63.14 73.76 65.08 73.81C68.74 73.92 72.39 73.52 75.94 72.64C77.74 72.19 82.24 71.07 89.44 69.27C147.15 54.25 183.21 44.87 197.64 41.11C197.64 41.11 224.62 35.62 224.62 35.62C226.72 35.31 221.9 36.02 224.62 35.62Z" id="c3u4TCcgG"></path><path d="M194.86 224.72C192.64 196.35 191.25 178.62 190.69 171.52C190.31 166.75 191.47 161.98 194 157.92C199.49 149.08 210.22 131.81 215.25 123.71C219.34 117.13 222.02 109.76 223.1 102.08C223.4 99.96 222.27 107.97 222.47 106.54C223.88 96.58 223.45 86.44 221.18 76.64C219.71 70.31 216.73 57.41 214.76 48.89C214.2 46.49 212.37 44.59 209.98 43.96C208.6 43.59 205.14 42.67 199.61 41.19C200.36 36.55 200.84 33.65 201.03 32.49C201.61 28.91 199.99 25.34 196.93 23.4C195.34 22.4 195.44 22.46 193.8 21.43C190.79 19.54 187.04 19.29 183.81 20.76C182.66 21.29 179.8 22.6 175.21 24.69C171.94 23.53 169.9 22.8 169.08 22.51C165.18 21.12 160.85 21.68 157.43 24.03C156.5 24.67 154.16 26.28 150.41 28.85C147.02 28.94 144.89 28.99 144.05 29.01C136.89 29.2 130.39 33.21 127.01 39.52C126.79 39.93 126.24 40.97 125.35 42.62C123.12 42.9 121.73 43.08 121.17 43.16C114.79 43.98 109.53 48.56 107.82 54.76C107.57 55.7 106.92 58.04 105.9 61.79C105.9 85.27 105.9 99.95 105.9 105.82C105.9 113.94 107.48 121.98 110.55 129.5C112.53 134.32 117.46 146.37 125.35 165.66L121.78 224.48L194.86 224.72Z" id="e7kk8vErOp"></path><path d="M131.03 101.58C135.52 102.8 140.08 99.88 140.86 95.3C141.04 94.28 140.57 97.01 140.86 95.3C141.43 91.95 141.15 88.52 140.03 85.31C137.53 78.15 131.46 60.75 128.89 53.39C128.04 50.94 126.04 49.07 123.54 48.39C122.25 48.04 124.2 48.57 123.36 48.34C119.42 47.27 115.19 48.14 111.99 50.69C110.98 51.49 114.11 49 113.36 49.59C109.37 52.77 107.29 57.78 107.86 62.86C108.04 64.55 107.67 61.23 107.86 62.86C108.47 68.4 110.38 73.72 113.43 78.39C116.34 82.87 122.4 92.16 125.8 97.38C127.22 99.56 129.39 101.14 131.91 101.82C133.41 102.23 130.42 101.42 131.03 101.58Z" id="i4gSBTwmw3"></path><path d="M149.71 97.59C153.87 99.78 159.02 98.01 160.95 93.72C161.45 92.63 160.51 94.72 161.29 92.99C162.66 89.93 162.96 86.5 162.14 83.26C159.66 73.49 153.29 48.41 150.75 38.45C150.1 35.86 148.52 33.6 146.32 32.09C145.25 31.35 147.01 32.56 146.32 32.09C143.07 29.86 138.8 29.79 135.48 31.93C134.1 32.82 136.58 31.22 135.48 31.93C131.24 34.66 128.88 39.53 129.35 44.55C129.51 46.24 129.2 42.91 129.35 44.55C129.87 50.15 131.1 55.67 133.01 60.97C135.48 67.84 141.21 83.79 143.98 91.49C144.86 93.93 146.63 95.96 148.93 97.18C150.62 98.07 148.84 97.13 149.71 97.59Z" id="aOCwlFehu"></path><path d="M166.73 90.13C169.89 93.25 175.13 92.63 177.46 88.85C178.09 87.84 176.89 89.78 177.89 88.17C179.65 85.32 180.4 81.96 180 78.63C178.82 68.62 175.77 42.93 174.56 32.72C174.25 30.07 172.98 27.62 171 25.84C170.03 24.97 171.61 26.39 171 25.84C168.06 23.2 163.84 22.58 160.27 24.26C158.79 24.97 161.45 23.71 160.27 24.26C155.79 26.38 153.07 31.02 153.41 35.96C153.53 37.65 153.3 34.32 153.41 35.96C153.8 41.59 154.63 47.19 155.89 52.69C157.49 59.61 161.16 75.56 162.95 83.34C163.55 85.92 164.86 88.27 166.73 90.13C167.97 91.35 166.16 89.56 166.73 90.13Z" id="d1FuQ6w6yV"></path><path d="M182.02 52.76C186.12 53.88 190.49 52.57 193.29 49.38C193.89 48.71 192.58 50.2 193.54 49.1C195.34 47.06 196.65 44.63 197.36 42.01C198.04 39.54 198.55 37.66 199.11 35.58C200.11 31.93 199.02 28.03 196.28 25.42C195.22 24.41 198.59 27.61 198.05 27.1C193.72 22.98 187.44 21.66 181.82 23.7C180.93 24.01 185.21 22.47 183.77 22.99C179.9 24.39 177.21 27.93 176.89 32.03C176.78 33.52 176.97 31.05 176.86 32.49C176.5 37.11 176.8 41.76 177.74 46.3C177.97 47.42 177.86 46.89 178.24 48.75C178.65 50.69 180.1 52.24 182.02 52.76C183.36 53.13 181.4 52.59 182.02 52.76Z" id="bqk2lQnfL"></path><path d="M176.12 222.83L176.28 174.52L161.73 170.63L162.83 165.03L173.72 165.98C193.93 142.66 206.57 128.1 211.62 122.27C216.46 116.69 219.64 109.88 220.83 102.6C221.05 101.22 220.3 105.82 220.63 103.84C221.5 98.46 221.34 92.97 220.17 87.65C218.61 80.55 215.13 64.75 213.43 57.01C212.8 54.15 210.36 52.04 207.44 51.83C206.14 51.74 208.8 51.93 207.91 51.87C203.3 51.54 198.75 50.66 194.36 49.23C191.99 48.46 186.07 46.54 176.6 43.46L177.43 54.86L185.61 67.02C187.53 68.4 188.73 69.25 189.21 69.6C193.5 72.66 198.93 73.66 204.02 72.3C204.04 72.3 204.08 72.29 204.14 72.27L207.11 79.24C202.27 80.06 199.25 80.58 198.04 80.78C196.83 80.99 195.91 82 195.82 83.22C195.75 84.17 195.56 86.53 195.27 90.32C192.83 92.04 191.31 93.12 190.7 93.55C189.33 94.52 188.41 96 188.13 97.65C188.03 98.27 187.77 99.84 187.36 102.35L164.25 106.46L125.49 107.83L123.73 104.12L114.36 105.83L114.36 130.09C122.22 149.45 127.13 161.55 129.1 166.39C129.66 167.77 131.12 168.55 132.58 168.26C134.47 167.87 139.21 166.91 146.8 165.38L149.53 170.63L140.33 171.99L129.2 172.62L127.85 223.59L176.12 222.83Z" id="adNrBsxi6"></path><path d="M32.85 78.52C35.25 80.56 37.35 82.91 39.11 85.51C40.59 87.7 41.55 89.12 42.82 91.01C45.13 94.42 45.72 98.73 44.41 102.64C43.88 104.24 44.55 102.23 44.07 103.68C42.59 108.1 39.31 111.68 35.04 113.54C32.98 114.44 27.82 116.68 19.57 120.26C22.34 121.21 24.08 121.81 24.77 122.05C28.38 123.29 32.18 123.92 36 123.92C38.14 123.92 39.56 123.92 41.89 123.92C45.06 123.92 48.18 123.11 50.95 121.57C53.08 120.4 52.59 120.66 54.06 119.85C58.76 117.25 61.86 112.49 62.34 107.14C62.5 105.37 62.28 107.86 62.46 105.9C62.91 100.89 62.14 95.85 60.22 91.2C59.29 88.95 59.46 89.35 58.53 87.12C56.56 82.35 53.79 77.95 50.35 74.11C48.67 72.23 47.95 71.44 46.05 69.32C43.36 66.31 39.91 64.08 36.06 62.86C33.74 62.12 36.09 62.87 34.63 62.4C28.32 60.4 21.43 61.85 16.45 66.21C15.34 67.18 16.59 66.09 14.62 67.81C12.17 69.95 10.17 72.55 8.71 75.46C8.06 76.77 6.42 80.05 3.79 85.3C14.04 80.78 20.44 77.95 23 76.82C26.17 75.42 29.85 75.96 32.48 78.2C33.28 78.88 31.92 77.72 32.85 78.52Z" id="b20HEmi2fE"></path><path d="M254.78 30.45C255.8 33.43 257.05 36.33 258.53 39.11C259.77 41.43 260.58 42.95 261.65 44.96C263.59 48.6 267.11 51.14 271.18 51.82C272.84 52.09 270.76 51.75 272.26 52C276.87 52.77 281.58 51.57 285.26 48.71C286.5 47.74 289.61 45.32 294.58 41.44C294.61 42.78 294.62 43.62 294.63 43.95C294.69 47.75 293.85 51.5 292.16 54.89C291.32 56.58 291.03 57.16 290.1 59.02C288.7 61.85 286.51 64.22 283.81 65.85C281.89 67.01 282.83 66.45 281.55 67.22C276.94 70 271.27 70.39 266.32 68.26C264.77 67.59 267.3 68.68 265.58 67.94C260.93 65.93 256.67 63.12 252.99 59.64C251.57 58.29 252.95 59.6 251.55 58.28C247.83 54.75 245.04 50.37 243.41 45.52C242.5 42.79 241.82 40.76 240.8 37.72C239.53 33.92 239.52 29.82 240.78 26.02C241.53 23.78 240.68 26.32 241.14 24.93C243.3 18.45 247.91 13.07 254 9.96C254.99 9.46 252.57 10.69 254.58 9.66C257.46 8.19 260.65 7.42 263.88 7.41C265.56 7.41 264.58 7.41 265.98 7.41C270.08 7.4 274.1 8.52 277.59 10.65C277.59 10.65 277.59 10.65 277.59 10.65C267.05 16.83 260.47 20.69 257.83 22.24C254.99 23.9 253.71 27.33 254.78 30.45C255.09 31.34 254.41 29.38 254.78 30.45Z" id="b3rm6ZWLnc"></path><path d="M100.83 73.03C103.19 72.39 105.62 73.8 106.26 76.16C106.59 77.41 106.45 76.9 106.79 78.15C107.42 80.51 106.02 82.94 103.66 83.58C100.51 84.42 95.33 85.81 92.18 86.66C89.82 87.29 87.39 85.89 86.75 83.53C86.42 82.27 86.56 82.79 86.22 81.53C85.59 79.17 86.99 76.74 89.35 76.11C92.5 75.26 97.68 73.87 100.83 73.03Z" id="g13l84beSW"></path><path d="M222.84 43.6C224.52 43.11 226.28 44.07 226.78 45.76C227.21 47.25 227.62 48.66 228.05 50.15C228.55 51.83 227.58 53.59 225.9 54.08C223.65 54.74 219.96 55.81 217.71 56.47C216.03 56.96 214.27 55.99 213.78 54.31C213.34 52.82 212.93 51.41 212.5 49.92C212.01 48.24 212.97 46.48 214.66 45.99C216.9 45.33 220.59 44.25 222.84 43.6Z" id="a5oCY6pDib"></path></defs><g><g><g><g><use xlink:href="#c3u4TCcgG" opacity="1" fill="#000000" fill-opacity="1"></use></g><g><use xlink:href="#e7kk8vErOp" opacity="1" fill="#000000" fill-opacity="1"></use></g><g><use xlink:href="#i4gSBTwmw3" opacity="1" fill="#9da3b4" fill-opacity="1"></use><g><use xlink:href="#i4gSBTwmw3" opacity="1" fill-opacity="0" stroke="#000000" stroke-width="1" stroke-opacity="1"></use></g></g><g><use xlink:href="#aOCwlFehu" opacity="1" fill="#9da3b4" fill-opacity="1"></use><g><use xlink:href="#aOCwlFehu" opacity="1" fill-opacity="0" stroke="#000000" stroke-width="1" stroke-opacity="1"></use></g></g><g><use xlink:href="#d1FuQ6w6yV" opacity="1" fill="#9da3b4" fill-opacity="1"></use><g><use xlink:href="#d1FuQ6w6yV" opacity="1" fill-opacity="0" stroke="#000000" stroke-width="1" stroke-opacity="1"></use></g></g><g><use xlink:href="#bqk2lQnfL" opacity="1" fill="#9da3b4" fill-opacity="1"></use><g><use xlink:href="#bqk2lQnfL" opacity="1" fill-opacity="0" stroke="#000000" stroke-width="1" stroke-opacity="1"></use></g></g><g><use xlink:href="#adNrBsxi6" opacity="1" fill="#9ea3b4" fill-opacity="1"></use><g><use xlink:href="#adNrBsxi6" opacity="1" fill-opacity="0" stroke="#000000" stroke-width="2" stroke-opacity="1"></use></g></g><g><use xlink:href="#b20HEmi2fE" opacity="1" fill="#9da3b4" fill-opacity="1"></use></g><g><use xlink:href="#b3rm6ZWLnc" opacity="1" fill="#9da3b4" fill-opacity="1"></use></g><g><use xlink:href="#g13l84beSW" opacity="1" fill="#9da3b4" fill-opacity="1"></use></g><g><use xlink:href="#a5oCY6pDib" opacity="1" fill="#9da3b4" fill-opacity="1"></use></g></g></g></g></svg>